G04 #@! TF.GenerationSoftware,KiCad,Pcbnew,5.0.0+dfsg1-2~bpo9+1*
G04 #@! TF.CreationDate,2018-10-04T21:41:33+01:00*
G04 #@! TF.ProjectId,rpi_pogo_battery_black,7270695F706F676F5F62617474657279,rev?*
G04 #@! TF.SameCoordinates,Original*
G04 #@! TF.FileFunction,Copper,L2,Bot,Signal*
G04 #@! TF.FilePolarity,Positive*
%FSLAX46Y46*%
G04 Gerber Fmt 4.6, Leading zero omitted, Abs format (unit mm)*
G04 Created by KiCad (PCBNEW 5.0.0+dfsg1-2~bpo9+1) date Thu Oct  4 21:41:33 2018*
%MOMM*%
%LPD*%
G01*
G04 APERTURE LIST*
G04 #@! TA.AperFunction,ComponentPad*
%ADD10C,1.850000*%
G04 #@! TD*
G04 #@! TA.AperFunction,ComponentPad*
%ADD11C,1.600000*%
G04 #@! TD*
G04 #@! TA.AperFunction,ComponentPad*
%ADD12C,3.500000*%
G04 #@! TD*
G04 #@! TA.AperFunction,ComponentPad*
%ADD13C,1.450000*%
G04 #@! TD*
G04 #@! TA.AperFunction,ComponentPad*
%ADD14O,1.900000X1.200000*%
G04 #@! TD*
G04 #@! TA.AperFunction,ComponentPad*
%ADD15C,1.800000*%
G04 #@! TD*
G04 #@! TA.AperFunction,ViaPad*
%ADD16C,0.600000*%
G04 #@! TD*
G04 #@! TA.AperFunction,Conductor*
%ADD17C,0.250000*%
G04 #@! TD*
G04 #@! TA.AperFunction,Conductor*
%ADD18C,0.500000*%
G04 #@! TD*
G04 APERTURE END LIST*
D10*
G04 #@! TO.P,J2,4*
G04 #@! TO.N,Net-(J2-Pad4)*
X175260000Y-107924600D03*
G04 #@! TO.P,J2,1*
G04 #@! TO.N,Net-(J2-Pad1)*
X174942500Y-105321100D03*
G04 #@! TO.P,J2,3*
G04 #@! TO.N,Net-(J2-Pad3)*
X163131500Y-109766100D03*
G04 #@! TO.P,J2,2*
G04 #@! TO.N,Net-(J2-Pad2)*
X161099500Y-109766100D03*
G04 #@! TD*
D11*
G04 #@! TO.P,U2,1*
G04 #@! TO.N,Net-(U1-Pad3)*
X183159400Y-92405200D03*
G04 #@! TO.P,U2,2*
G04 #@! TO.N,Net-(U1-Pad4)*
X183159400Y-90373200D03*
G04 #@! TD*
G04 #@! TO.P,SW1,1*
G04 #@! TO.N,Net-(J2-Pad1)*
X151130000Y-109601000D03*
G04 #@! TO.P,SW1,2*
G04 #@! TO.N,Net-(SW1-Pad2)*
X148590000Y-109601000D03*
G04 #@! TO.P,SW1,3*
G04 #@! TO.N,Net-(SW1-Pad3)*
X146050000Y-109601000D03*
G04 #@! TD*
D12*
G04 #@! TO.P,REF\002A\002A,1*
G04 #@! TO.N,N/C*
X124700000Y-85100000D03*
G04 #@! TD*
G04 #@! TO.P,REF\002A\002A,1*
G04 #@! TO.N,N/C*
X124700000Y-108100000D03*
G04 #@! TD*
G04 #@! TO.P,REF\002A\002A,1*
G04 #@! TO.N,N/C*
X182700000Y-108100000D03*
G04 #@! TD*
G04 #@! TO.P,REF\002A\002A,1*
G04 #@! TO.N,N/C*
X182700000Y-85100000D03*
G04 #@! TD*
D13*
G04 #@! TO.P,J1,6*
G04 #@! TO.N,Net-(J1-Pad5)*
X182003200Y-102601400D03*
X182003200Y-97601400D03*
D14*
X184703200Y-103601400D03*
X184703200Y-96601400D03*
G04 #@! TD*
D15*
G04 #@! TO.P,SW2,1*
G04 #@! TO.N,Net-(J2-Pad4)*
X123444000Y-99872800D03*
G04 #@! TO.P,SW2,2*
G04 #@! TO.N,Net-(SW2-Pad2)*
X123444000Y-93268800D03*
G04 #@! TD*
D11*
G04 #@! TO.P,U1,1*
G04 #@! TO.N,Net-(J1-Pad1)*
X129413000Y-104673400D03*
G04 #@! TO.P,U1,2*
G04 #@! TO.N,Net-(J1-Pad5)*
X131953000Y-104673400D03*
G04 #@! TO.P,U1,3*
G04 #@! TO.N,Net-(U1-Pad3)*
X134493000Y-104673400D03*
G04 #@! TO.P,U1,4*
G04 #@! TO.N,Net-(U1-Pad4)*
X137033000Y-104673400D03*
G04 #@! TO.P,U1,5*
G04 #@! TO.N,Net-(J2-Pad4)*
X139573000Y-104673400D03*
G04 #@! TO.P,U1,6*
G04 #@! TO.N,Net-(SW1-Pad2)*
X142113000Y-104673400D03*
G04 #@! TO.P,U1,7*
G04 #@! TO.N,Net-(SW2-Pad2)*
X130937000Y-84226400D03*
G04 #@! TD*
D16*
G04 #@! TO.N,Net-(J1-Pad1)*
X145618200Y-100253800D03*
G04 #@! TO.N,Net-(J1-Pad5)*
X143687800Y-100203000D03*
G04 #@! TO.N,Net-(U1-Pad3)*
X136017000Y-95885000D03*
G04 #@! TD*
D17*
G04 #@! TO.N,Net-(J1-Pad1)*
X145618200Y-100253800D02*
X144221200Y-98856800D01*
X135229600Y-98856800D02*
X129413000Y-104673400D01*
X144221200Y-98856800D02*
X135229600Y-98856800D01*
G04 #@! TO.N,Net-(J1-Pad5)*
X143263536Y-100203000D02*
X141383936Y-102082600D01*
X143687800Y-100203000D02*
X143263536Y-100203000D01*
X134543800Y-102082600D02*
X131953000Y-104673400D01*
X141383936Y-102082600D02*
X134543800Y-102082600D01*
G04 #@! TO.N,Net-(SW1-Pad2)*
X141681200Y-104622600D02*
X141981199Y-104322601D01*
D18*
G04 #@! TO.N,Net-(J2-Pad4)*
X141692830Y-107924600D02*
X175260000Y-107924600D01*
X139573000Y-105804770D02*
X141692830Y-107924600D01*
X139573000Y-104673400D02*
X139573000Y-105804770D01*
G04 #@! TO.N,Net-(U1-Pad3)*
X139496800Y-92405200D02*
X136017000Y-95885000D01*
X183159400Y-92405200D02*
X139496800Y-92405200D01*
G04 #@! TD*
M02*
