G04 #@! TF.GenerationSoftware,KiCad,Pcbnew,5.0.0+dfsg1-2~bpo9+1*
G04 #@! TF.CreationDate,2018-10-04T21:41:33+01:00*
G04 #@! TF.ProjectId,rpi_pogo_battery_black,7270695F706F676F5F62617474657279,rev?*
G04 #@! TF.SameCoordinates,Original*
G04 #@! TF.FileFunction,Legend,Top*
G04 #@! TF.FilePolarity,Positive*
%FSLAX46Y46*%
G04 Gerber Fmt 4.6, Leading zero omitted, Abs format (unit mm)*
G04 Created by KiCad (PCBNEW 5.0.0+dfsg1-2~bpo9+1) date Thu Oct  4 21:41:33 2018*
%MOMM*%
%LPD*%
G01*
G04 APERTURE LIST*
%ADD10C,0.300000*%
%ADD11C,0.175000*%
%ADD12C,0.150000*%
%ADD13C,0.120000*%
G04 APERTURE END LIST*
D10*
X150539085Y-83227171D02*
X151539085Y-83227171D01*
X150539085Y-84727171D01*
X151539085Y-84727171D01*
X152681942Y-84655742D02*
X152539085Y-84727171D01*
X152253371Y-84727171D01*
X152110514Y-84655742D01*
X152039085Y-84512885D01*
X152039085Y-83941457D01*
X152110514Y-83798600D01*
X152253371Y-83727171D01*
X152539085Y-83727171D01*
X152681942Y-83798600D01*
X152753371Y-83941457D01*
X152753371Y-84084314D01*
X152039085Y-84227171D01*
X153396228Y-84727171D02*
X153396228Y-83727171D01*
X153396228Y-84012885D02*
X153467657Y-83870028D01*
X153539085Y-83798600D01*
X153681942Y-83727171D01*
X153824800Y-83727171D01*
X154539085Y-84727171D02*
X154396228Y-84655742D01*
X154324800Y-84584314D01*
X154253371Y-84441457D01*
X154253371Y-84012885D01*
X154324800Y-83870028D01*
X154396228Y-83798600D01*
X154539085Y-83727171D01*
X154753371Y-83727171D01*
X154896228Y-83798600D01*
X154967657Y-83870028D01*
X155039085Y-84012885D01*
X155039085Y-84441457D01*
X154967657Y-84584314D01*
X154896228Y-84655742D01*
X154753371Y-84727171D01*
X154539085Y-84727171D01*
X155324800Y-84870028D02*
X156467657Y-84870028D01*
X156824800Y-84727171D02*
X156824800Y-83227171D01*
X156824800Y-83798600D02*
X156967657Y-83727171D01*
X157253371Y-83727171D01*
X157396228Y-83798600D01*
X157467657Y-83870028D01*
X157539085Y-84012885D01*
X157539085Y-84441457D01*
X157467657Y-84584314D01*
X157396228Y-84655742D01*
X157253371Y-84727171D01*
X156967657Y-84727171D01*
X156824800Y-84655742D01*
X158396228Y-84727171D02*
X158253371Y-84655742D01*
X158181942Y-84584314D01*
X158110514Y-84441457D01*
X158110514Y-84012885D01*
X158181942Y-83870028D01*
X158253371Y-83798600D01*
X158396228Y-83727171D01*
X158610514Y-83727171D01*
X158753371Y-83798600D01*
X158824800Y-83870028D01*
X158896228Y-84012885D01*
X158896228Y-84441457D01*
X158824800Y-84584314D01*
X158753371Y-84655742D01*
X158610514Y-84727171D01*
X158396228Y-84727171D01*
X159753371Y-84727171D02*
X159610514Y-84655742D01*
X159539085Y-84584314D01*
X159467657Y-84441457D01*
X159467657Y-84012885D01*
X159539085Y-83870028D01*
X159610514Y-83798600D01*
X159753371Y-83727171D01*
X159967657Y-83727171D01*
X160110514Y-83798600D01*
X160181942Y-83870028D01*
X160253371Y-84012885D01*
X160253371Y-84441457D01*
X160181942Y-84584314D01*
X160110514Y-84655742D01*
X159967657Y-84727171D01*
X159753371Y-84727171D01*
X160681942Y-83727171D02*
X161253371Y-83727171D01*
X160896228Y-83227171D02*
X160896228Y-84512885D01*
X160967657Y-84655742D01*
X161110514Y-84727171D01*
X161253371Y-84727171D01*
X161396228Y-84870028D02*
X162539085Y-84870028D01*
X162896228Y-84727171D02*
X162896228Y-83227171D01*
X162896228Y-83798600D02*
X163039085Y-83727171D01*
X163324800Y-83727171D01*
X163467657Y-83798600D01*
X163539085Y-83870028D01*
X163610514Y-84012885D01*
X163610514Y-84441457D01*
X163539085Y-84584314D01*
X163467657Y-84655742D01*
X163324800Y-84727171D01*
X163039085Y-84727171D01*
X162896228Y-84655742D01*
X164896228Y-84727171D02*
X164896228Y-83941457D01*
X164824800Y-83798600D01*
X164681942Y-83727171D01*
X164396228Y-83727171D01*
X164253371Y-83798600D01*
X164896228Y-84655742D02*
X164753371Y-84727171D01*
X164396228Y-84727171D01*
X164253371Y-84655742D01*
X164181942Y-84512885D01*
X164181942Y-84370028D01*
X164253371Y-84227171D01*
X164396228Y-84155742D01*
X164753371Y-84155742D01*
X164896228Y-84084314D01*
X165396228Y-83727171D02*
X165967657Y-83727171D01*
X165610514Y-83227171D02*
X165610514Y-84512885D01*
X165681942Y-84655742D01*
X165824800Y-84727171D01*
X165967657Y-84727171D01*
X166253371Y-83727171D02*
X166824800Y-83727171D01*
X166467657Y-83227171D02*
X166467657Y-84512885D01*
X166539085Y-84655742D01*
X166681942Y-84727171D01*
X166824800Y-84727171D01*
X167896228Y-84655742D02*
X167753371Y-84727171D01*
X167467657Y-84727171D01*
X167324800Y-84655742D01*
X167253371Y-84512885D01*
X167253371Y-83941457D01*
X167324800Y-83798600D01*
X167467657Y-83727171D01*
X167753371Y-83727171D01*
X167896228Y-83798600D01*
X167967657Y-83941457D01*
X167967657Y-84084314D01*
X167253371Y-84227171D01*
X168610514Y-84727171D02*
X168610514Y-83727171D01*
X168610514Y-84012885D02*
X168681942Y-83870028D01*
X168753371Y-83798600D01*
X168896228Y-83727171D01*
X169039085Y-83727171D01*
X169396228Y-83727171D02*
X169753371Y-84727171D01*
X170110514Y-83727171D02*
X169753371Y-84727171D01*
X169610514Y-85084314D01*
X169539085Y-85155742D01*
X169396228Y-85227171D01*
X161690371Y-103385228D02*
X161761800Y-103313800D01*
X161904657Y-103242371D01*
X162261800Y-103242371D01*
X162404657Y-103313800D01*
X162476085Y-103385228D01*
X162547514Y-103528085D01*
X162547514Y-103670942D01*
X162476085Y-103885228D01*
X161618942Y-104742371D01*
X162547514Y-104742371D01*
X163476085Y-103242371D02*
X163618942Y-103242371D01*
X163761800Y-103313800D01*
X163833228Y-103385228D01*
X163904657Y-103528085D01*
X163976085Y-103813800D01*
X163976085Y-104170942D01*
X163904657Y-104456657D01*
X163833228Y-104599514D01*
X163761800Y-104670942D01*
X163618942Y-104742371D01*
X163476085Y-104742371D01*
X163333228Y-104670942D01*
X163261800Y-104599514D01*
X163190371Y-104456657D01*
X163118942Y-104170942D01*
X163118942Y-103813800D01*
X163190371Y-103528085D01*
X163261800Y-103385228D01*
X163333228Y-103313800D01*
X163476085Y-103242371D01*
X165404657Y-104742371D02*
X164547514Y-104742371D01*
X164976085Y-104742371D02*
X164976085Y-103242371D01*
X164833228Y-103456657D01*
X164690371Y-103599514D01*
X164547514Y-103670942D01*
X166261800Y-103885228D02*
X166118942Y-103813800D01*
X166047514Y-103742371D01*
X165976085Y-103599514D01*
X165976085Y-103528085D01*
X166047514Y-103385228D01*
X166118942Y-103313800D01*
X166261800Y-103242371D01*
X166547514Y-103242371D01*
X166690371Y-103313800D01*
X166761800Y-103385228D01*
X166833228Y-103528085D01*
X166833228Y-103599514D01*
X166761800Y-103742371D01*
X166690371Y-103813800D01*
X166547514Y-103885228D01*
X166261800Y-103885228D01*
X166118942Y-103956657D01*
X166047514Y-104028085D01*
X165976085Y-104170942D01*
X165976085Y-104456657D01*
X166047514Y-104599514D01*
X166118942Y-104670942D01*
X166261800Y-104742371D01*
X166547514Y-104742371D01*
X166690371Y-104670942D01*
X166761800Y-104599514D01*
X166833228Y-104456657D01*
X166833228Y-104170942D01*
X166761800Y-104028085D01*
X166690371Y-103956657D01*
X166547514Y-103885228D01*
X146997742Y-103956657D02*
X146497742Y-103956657D01*
X146497742Y-104742371D02*
X146497742Y-103242371D01*
X147212028Y-103242371D01*
X148426314Y-104742371D02*
X148426314Y-103956657D01*
X148354885Y-103813800D01*
X148212028Y-103742371D01*
X147926314Y-103742371D01*
X147783457Y-103813800D01*
X148426314Y-104670942D02*
X148283457Y-104742371D01*
X147926314Y-104742371D01*
X147783457Y-104670942D01*
X147712028Y-104528085D01*
X147712028Y-104385228D01*
X147783457Y-104242371D01*
X147926314Y-104170942D01*
X148283457Y-104170942D01*
X148426314Y-104099514D01*
X149783457Y-104670942D02*
X149640600Y-104742371D01*
X149354885Y-104742371D01*
X149212028Y-104670942D01*
X149140600Y-104599514D01*
X149069171Y-104456657D01*
X149069171Y-104028085D01*
X149140600Y-103885228D01*
X149212028Y-103813800D01*
X149354885Y-103742371D01*
X149640600Y-103742371D01*
X149783457Y-103813800D01*
X150997742Y-104670942D02*
X150854885Y-104742371D01*
X150569171Y-104742371D01*
X150426314Y-104670942D01*
X150354885Y-104528085D01*
X150354885Y-103956657D01*
X150426314Y-103813800D01*
X150569171Y-103742371D01*
X150854885Y-103742371D01*
X150997742Y-103813800D01*
X151069171Y-103956657D01*
X151069171Y-104099514D01*
X150354885Y-104242371D01*
X151926314Y-104742371D02*
X151783457Y-104670942D01*
X151712028Y-104528085D01*
X151712028Y-103242371D01*
X153069171Y-104670942D02*
X152926314Y-104742371D01*
X152640600Y-104742371D01*
X152497742Y-104670942D01*
X152426314Y-104528085D01*
X152426314Y-103956657D01*
X152497742Y-103813800D01*
X152640600Y-103742371D01*
X152926314Y-103742371D01*
X153069171Y-103813800D01*
X153140600Y-103956657D01*
X153140600Y-104099514D01*
X152426314Y-104242371D01*
X153712028Y-104670942D02*
X153854885Y-104742371D01*
X154140600Y-104742371D01*
X154283457Y-104670942D01*
X154354885Y-104528085D01*
X154354885Y-104456657D01*
X154283457Y-104313800D01*
X154140600Y-104242371D01*
X153926314Y-104242371D01*
X153783457Y-104170942D01*
X153712028Y-104028085D01*
X153712028Y-103956657D01*
X153783457Y-103813800D01*
X153926314Y-103742371D01*
X154140600Y-103742371D01*
X154283457Y-103813800D01*
X154926314Y-104670942D02*
X155069171Y-104742371D01*
X155354885Y-104742371D01*
X155497742Y-104670942D01*
X155569171Y-104528085D01*
X155569171Y-104456657D01*
X155497742Y-104313800D01*
X155354885Y-104242371D01*
X155140600Y-104242371D01*
X154997742Y-104170942D01*
X154926314Y-104028085D01*
X154926314Y-103956657D01*
X154997742Y-103813800D01*
X155140600Y-103742371D01*
X155354885Y-103742371D01*
X155497742Y-103813800D01*
X155997742Y-103742371D02*
X156569171Y-103742371D01*
X156212028Y-103242371D02*
X156212028Y-104528085D01*
X156283457Y-104670942D01*
X156426314Y-104742371D01*
X156569171Y-104742371D01*
X157640600Y-104670942D02*
X157497742Y-104742371D01*
X157212028Y-104742371D01*
X157069171Y-104670942D01*
X156997742Y-104528085D01*
X156997742Y-103956657D01*
X157069171Y-103813800D01*
X157212028Y-103742371D01*
X157497742Y-103742371D01*
X157640600Y-103813800D01*
X157712028Y-103956657D01*
X157712028Y-104099514D01*
X156997742Y-104242371D01*
X158997742Y-104670942D02*
X158854885Y-104742371D01*
X158569171Y-104742371D01*
X158426314Y-104670942D01*
X158354885Y-104599514D01*
X158283457Y-104456657D01*
X158283457Y-104028085D01*
X158354885Y-103885228D01*
X158426314Y-103813800D01*
X158569171Y-103742371D01*
X158854885Y-103742371D01*
X158997742Y-103813800D01*
X159640600Y-104742371D02*
X159640600Y-103242371D01*
X160283457Y-104742371D02*
X160283457Y-103956657D01*
X160212028Y-103813800D01*
X160069171Y-103742371D01*
X159854885Y-103742371D01*
X159712028Y-103813800D01*
X159640600Y-103885228D01*
D11*
X153736990Y-109764580D02*
X153927466Y-109764580D01*
X154022704Y-109812200D01*
X154117942Y-109907438D01*
X154165561Y-110097914D01*
X154165561Y-110431247D01*
X154117942Y-110621723D01*
X154022704Y-110716961D01*
X153927466Y-110764580D01*
X153736990Y-110764580D01*
X153641752Y-110716961D01*
X153546514Y-110621723D01*
X153498895Y-110431247D01*
X153498895Y-110097914D01*
X153546514Y-109907438D01*
X153641752Y-109812200D01*
X153736990Y-109764580D01*
X154927466Y-110240771D02*
X154594133Y-110240771D01*
X154594133Y-110764580D02*
X154594133Y-109764580D01*
X155070323Y-109764580D01*
X155784609Y-110240771D02*
X155451276Y-110240771D01*
X155451276Y-110764580D02*
X155451276Y-109764580D01*
X155927466Y-109764580D01*
X157022704Y-109716961D02*
X156165561Y-111002676D01*
X157546514Y-109764580D02*
X157736990Y-109764580D01*
X157832228Y-109812200D01*
X157927466Y-109907438D01*
X157975085Y-110097914D01*
X157975085Y-110431247D01*
X157927466Y-110621723D01*
X157832228Y-110716961D01*
X157736990Y-110764580D01*
X157546514Y-110764580D01*
X157451276Y-110716961D01*
X157356038Y-110621723D01*
X157308419Y-110431247D01*
X157308419Y-110097914D01*
X157356038Y-109907438D01*
X157451276Y-109812200D01*
X157546514Y-109764580D01*
X158403657Y-110764580D02*
X158403657Y-109764580D01*
X158975085Y-110764580D01*
X158975085Y-109764580D01*
D12*
G04 #@! TO.C,U2*
X183159400Y-94373700D02*
X180746400Y-94373700D01*
X180746400Y-94373700D02*
X180746400Y-88404700D01*
X180746400Y-88404700D02*
X185572400Y-88404700D01*
X185572400Y-94373700D02*
X183159400Y-94373700D01*
X185572400Y-92024200D02*
X184810400Y-92024200D01*
X184810400Y-92024200D02*
X184810400Y-90754200D01*
X184810400Y-90754200D02*
X185572400Y-90754200D01*
X185572400Y-88404700D02*
X185572400Y-90754200D01*
X185572400Y-92024200D02*
X185572400Y-94373700D01*
G04 #@! TO.C,SW1*
X152844500Y-111506000D02*
X152844500Y-107696000D01*
X152844500Y-107696000D02*
X144335500Y-107696000D01*
X144335500Y-107696000D02*
X144335500Y-111506000D01*
X144335500Y-111506000D02*
X152844500Y-111506000D01*
D13*
G04 #@! TO.C,J1*
X181703200Y-104001400D02*
X181703200Y-103551400D01*
X183553200Y-104001400D02*
X181703200Y-104001400D01*
X186103200Y-96201400D02*
X185853200Y-96201400D01*
X186103200Y-104001400D02*
X185853200Y-104001400D01*
X183553200Y-96201400D02*
X181703200Y-96201400D01*
X181703200Y-96201400D02*
X181703200Y-96651400D01*
X181153200Y-101801400D02*
X181153200Y-101351400D01*
X181153200Y-101801400D02*
X181603200Y-101801400D01*
D12*
G04 #@! TO.C,SW2*
X124206000Y-95046800D02*
X122682000Y-95046800D01*
X122682000Y-95046800D02*
X122682000Y-98094800D01*
X122682000Y-98094800D02*
X124206000Y-98094800D01*
X124206000Y-98094800D02*
X124206000Y-95046800D01*
X122428000Y-93268800D02*
X121666000Y-93268800D01*
X121666000Y-93268800D02*
X121666000Y-99872800D01*
X121666000Y-99872800D02*
X122428000Y-99872800D01*
X125222000Y-93268800D02*
X124460000Y-93268800D01*
X125222000Y-93268800D02*
X125222000Y-99872800D01*
X125222000Y-99872800D02*
X124460000Y-99872800D01*
G04 #@! TO.C,U1*
X135763000Y-106705400D02*
X143637000Y-106705400D01*
X143637000Y-106705400D02*
X143637000Y-81686400D01*
X143637000Y-81686400D02*
X127889000Y-81686400D01*
X127889000Y-81686400D02*
X127889000Y-106705400D01*
X127889000Y-106705400D02*
X135763000Y-106705400D01*
G04 #@! TO.C,U2*
X181643328Y-90754152D02*
X181643328Y-89992247D01*
X182024280Y-90373200D02*
X181262376Y-90373200D01*
X181675019Y-92849652D02*
X181675019Y-92087747D01*
G04 #@! TD*
M02*
