G04 #@! TF.GenerationSoftware,KiCad,Pcbnew,5.0.0+dfsg1-2~bpo9+1*
G04 #@! TF.CreationDate,2018-10-04T21:41:33+01:00*
G04 #@! TF.ProjectId,rpi_pogo_battery_black,7270695F706F676F5F62617474657279,rev?*
G04 #@! TF.SameCoordinates,Original*
G04 #@! TF.FileFunction,Copper,L1,Top,Signal*
G04 #@! TF.FilePolarity,Positive*
%FSLAX46Y46*%
G04 Gerber Fmt 4.6, Leading zero omitted, Abs format (unit mm)*
G04 Created by KiCad (PCBNEW 5.0.0+dfsg1-2~bpo9+1) date Thu Oct  4 21:41:33 2018*
%MOMM*%
%LPD*%
G01*
G04 APERTURE LIST*
G04 #@! TA.AperFunction,ComponentPad*
%ADD10C,1.850000*%
G04 #@! TD*
G04 #@! TA.AperFunction,ComponentPad*
%ADD11C,1.600000*%
G04 #@! TD*
G04 #@! TA.AperFunction,ComponentPad*
%ADD12C,3.500000*%
G04 #@! TD*
G04 #@! TA.AperFunction,SMDPad,CuDef*
%ADD13R,1.900000X1.500000*%
G04 #@! TD*
G04 #@! TA.AperFunction,ComponentPad*
%ADD14C,1.450000*%
G04 #@! TD*
G04 #@! TA.AperFunction,SMDPad,CuDef*
%ADD15R,1.350000X0.400000*%
G04 #@! TD*
G04 #@! TA.AperFunction,ComponentPad*
%ADD16O,1.900000X1.200000*%
G04 #@! TD*
G04 #@! TA.AperFunction,SMDPad,CuDef*
%ADD17R,1.900000X1.200000*%
G04 #@! TD*
G04 #@! TA.AperFunction,ComponentPad*
%ADD18C,1.800000*%
G04 #@! TD*
G04 #@! TA.AperFunction,ViaPad*
%ADD19C,0.600000*%
G04 #@! TD*
G04 #@! TA.AperFunction,Conductor*
%ADD20C,0.250000*%
G04 #@! TD*
G04 #@! TA.AperFunction,Conductor*
%ADD21C,0.500000*%
G04 #@! TD*
G04 APERTURE END LIST*
D10*
G04 #@! TO.P,J2,4*
G04 #@! TO.N,Net-(J2-Pad4)*
X175260000Y-107924600D03*
G04 #@! TO.P,J2,1*
G04 #@! TO.N,Net-(J2-Pad1)*
X174942500Y-105321100D03*
G04 #@! TO.P,J2,3*
G04 #@! TO.N,Net-(J2-Pad3)*
X163131500Y-109766100D03*
G04 #@! TO.P,J2,2*
G04 #@! TO.N,Net-(J2-Pad2)*
X161099500Y-109766100D03*
G04 #@! TD*
D11*
G04 #@! TO.P,U2,1*
G04 #@! TO.N,Net-(U1-Pad3)*
X183159400Y-92405200D03*
G04 #@! TO.P,U2,2*
G04 #@! TO.N,Net-(U1-Pad4)*
X183159400Y-90373200D03*
G04 #@! TD*
G04 #@! TO.P,SW1,1*
G04 #@! TO.N,Net-(J2-Pad1)*
X151130000Y-109601000D03*
G04 #@! TO.P,SW1,2*
G04 #@! TO.N,Net-(SW1-Pad2)*
X148590000Y-109601000D03*
G04 #@! TO.P,SW1,3*
G04 #@! TO.N,Net-(SW1-Pad3)*
X146050000Y-109601000D03*
G04 #@! TD*
D12*
G04 #@! TO.P,REF\002A\002A,1*
G04 #@! TO.N,N/C*
X124700000Y-85100000D03*
G04 #@! TD*
G04 #@! TO.P,REF\002A\002A,1*
G04 #@! TO.N,N/C*
X124700000Y-108100000D03*
G04 #@! TD*
G04 #@! TO.P,REF\002A\002A,1*
G04 #@! TO.N,N/C*
X182700000Y-108100000D03*
G04 #@! TD*
G04 #@! TO.P,REF\002A\002A,1*
G04 #@! TO.N,N/C*
X182700000Y-85100000D03*
G04 #@! TD*
D13*
G04 #@! TO.P,J1,6*
G04 #@! TO.N,Net-(J1-Pad5)*
X184703200Y-99101400D03*
D14*
X182003200Y-102601400D03*
D15*
G04 #@! TO.P,J1,2*
G04 #@! TO.N,Net-(J1-Pad2)*
X182003200Y-100751400D03*
G04 #@! TO.P,J1,1*
G04 #@! TO.N,Net-(J1-Pad1)*
X182003200Y-101401400D03*
G04 #@! TO.P,J1,5*
G04 #@! TO.N,Net-(J1-Pad5)*
X182003200Y-98801400D03*
G04 #@! TO.P,J1,4*
G04 #@! TO.N,Net-(J1-Pad4)*
X182003200Y-99451400D03*
G04 #@! TO.P,J1,3*
G04 #@! TO.N,Net-(J1-Pad3)*
X182003200Y-100101400D03*
D14*
G04 #@! TO.P,J1,6*
G04 #@! TO.N,Net-(J1-Pad5)*
X182003200Y-97601400D03*
D13*
X184703200Y-101101400D03*
D16*
X184703200Y-103601400D03*
X184703200Y-96601400D03*
D17*
X184703200Y-97201400D03*
X184703200Y-103001400D03*
G04 #@! TD*
D18*
G04 #@! TO.P,SW2,1*
G04 #@! TO.N,Net-(J2-Pad4)*
X123444000Y-99872800D03*
G04 #@! TO.P,SW2,2*
G04 #@! TO.N,Net-(SW2-Pad2)*
X123444000Y-93268800D03*
G04 #@! TD*
D11*
G04 #@! TO.P,U1,1*
G04 #@! TO.N,Net-(J1-Pad1)*
X129413000Y-104673400D03*
G04 #@! TO.P,U1,2*
G04 #@! TO.N,Net-(J1-Pad5)*
X131953000Y-104673400D03*
G04 #@! TO.P,U1,3*
G04 #@! TO.N,Net-(U1-Pad3)*
X134493000Y-104673400D03*
G04 #@! TO.P,U1,4*
G04 #@! TO.N,Net-(U1-Pad4)*
X137033000Y-104673400D03*
G04 #@! TO.P,U1,5*
G04 #@! TO.N,Net-(J2-Pad4)*
X139573000Y-104673400D03*
G04 #@! TO.P,U1,6*
G04 #@! TO.N,Net-(SW1-Pad2)*
X142113000Y-104673400D03*
G04 #@! TO.P,U1,7*
G04 #@! TO.N,Net-(SW2-Pad2)*
X130937000Y-84226400D03*
G04 #@! TD*
D19*
G04 #@! TO.N,Net-(J1-Pad1)*
X145618200Y-100253800D03*
G04 #@! TO.N,Net-(J1-Pad5)*
X143687800Y-100203000D03*
G04 #@! TO.N,Net-(U1-Pad3)*
X136017000Y-95885000D03*
G04 #@! TD*
D20*
G04 #@! TO.N,Net-(J1-Pad1)*
X146765800Y-101401400D02*
X145618200Y-100253800D01*
X182003200Y-101401400D02*
X146765800Y-101401400D01*
G04 #@! TO.N,Net-(J1-Pad5)*
X183003200Y-96601400D02*
X184703200Y-96601400D01*
X182003200Y-97601400D02*
X183003200Y-96601400D01*
X183003200Y-103601400D02*
X184703200Y-103601400D01*
X182003200Y-102601400D02*
X183003200Y-103601400D01*
X184703200Y-97201400D02*
X184703200Y-103601400D01*
X145089400Y-98801400D02*
X143687800Y-100203000D01*
X182003200Y-98801400D02*
X173710600Y-98801400D01*
X173710600Y-98801400D02*
X172059600Y-98801400D01*
X172059600Y-98801400D02*
X172673800Y-98801400D01*
X172059600Y-98801400D02*
X145089400Y-98801400D01*
X172673800Y-98801400D02*
X175895000Y-95580200D01*
X179982000Y-95580200D02*
X182003200Y-97601400D01*
X175895000Y-95580200D02*
X179982000Y-95580200D01*
G04 #@! TO.N,Net-(SW1-Pad2)*
X141681200Y-104952800D02*
X141681200Y-104622600D01*
D21*
X143244370Y-104673400D02*
X145403370Y-106832400D01*
X142113000Y-104673400D02*
X143244370Y-104673400D01*
X145821400Y-106832400D02*
X148590000Y-109601000D01*
X145403370Y-106832400D02*
X145821400Y-106832400D01*
G04 #@! TO.N,Net-(J2-Pad1)*
X151929999Y-108801001D02*
X152310999Y-108801001D01*
X151130000Y-109601000D02*
X151929999Y-108801001D01*
X155790900Y-105321100D02*
X174942500Y-105321100D01*
X152310999Y-108801001D02*
X155790900Y-105321100D01*
D20*
G04 #@! TO.N,Net-(J2-Pad4)*
X139573000Y-104673400D02*
X136169400Y-108077000D01*
X130375408Y-108077000D02*
X123444000Y-101145592D01*
X123444000Y-101145592D02*
X123444000Y-99872800D01*
X136169400Y-108077000D02*
X130375408Y-108077000D01*
G04 #@! TO.N,Net-(SW2-Pad2)*
X123444000Y-91719400D02*
X123444000Y-93268800D01*
X130937000Y-84226400D02*
X123444000Y-91719400D01*
D21*
G04 #@! TO.N,Net-(U1-Pad3)*
X134493000Y-97409000D02*
X134493000Y-104673400D01*
X136017000Y-95885000D02*
X134493000Y-97409000D01*
G04 #@! TO.N,Net-(U1-Pad4)*
X151333200Y-90373200D02*
X137033000Y-104673400D01*
X183159400Y-90373200D02*
X151333200Y-90373200D01*
G04 #@! TD*
M02*
