M48
METRIC,TZ
T1C0.400
T2C0.600
T3C0.800
T4C0.850
T5C1.000
T6C1.200
T7C2.850
%
G90
G05
T1
X136017Y-95885
X143688Y-100203
X145618Y-100254
T3
X161100Y-109766
X163131Y-109766
X174943Y-105321
X175260Y-107925
T4
X182003Y-97601
X182003Y-102601
T5
X146050Y-109601
X148590Y-109601
X151130Y-109601
X129413Y-104673
X130937Y-84226
X131953Y-104673
X134493Y-104673
X137033Y-104673
X139573Y-104673
X142113Y-104673
X183159Y-90373
X183159Y-92405
T6
X123444Y-93269
X123444Y-99873
T7
X182700Y-85100
X124700Y-108100
X182700Y-108100
X124700Y-85100
T2
X184353Y-96601G85X185053Y-96601
G05
X185053Y-103601G85X184353Y-103601
G05
T0
M30
